<svg id="Layer_1" data-name="Layer 1" xmlns="http://www.w3.org/2000/svg" viewBox="0 0 512 512"><defs><style>.cls-1{fill:#efc17f;}.cls-2{fill:#ffd38d;}.cls-3{fill:#6d4135;}.cls-4{opacity:0.1;}</style></defs><title>gift-box-flat</title><path class="cls-1" d="M469.33,234.67v256A21.4,21.4,0,0,1,448,512H64a21.4,21.4,0,0,1-21.33-21.33v-256Z"/><rect class="cls-2" y="106.67" width="512" height="128" rx="21.33" ry="21.33"/><path class="cls-3" d="M298.67,0A63.26,63.26,0,0,0,256,16.43,63.26,63.26,0,0,0,213.33,0a64.05,64.05,0,0,0-64,64,63.26,63.26,0,0,0,16.43,42.67h47.57V512h85.33V106.67h47.57A63.26,63.26,0,0,0,362.67,64,64.05,64.05,0,0,0,298.67,0ZM192,64a21.33,21.33,0,0,1,42.67,0V85.33H213.33A21.4,21.4,0,0,1,192,64ZM298.67,85.33H277.33V64a21.33,21.33,0,1,1,21.33,21.33Z"/><g class="cls-4"><path d="M490.67,106.67H346.24A63.26,63.26,0,0,0,362.67,64a64.05,64.05,0,0,0-64-64A63.26,63.26,0,0,0,256,16.43V512H448a21.4,21.4,0,0,0,21.33-21.33v-256h21.33A21.4,21.4,0,0,0,512,213.33V128A21.4,21.4,0,0,0,490.67,106.67Zm-192-64a21.33,21.33,0,0,1,0,42.67H277.33V64A21.4,21.4,0,0,1,298.67,42.67Z"/></g></svg>